<svg width="50" height="48" viewBox="0 0 50 48" fill="none" xmlns="http://www.w3.org/2000/svg">
<path d="M1.92776 26.8364C1.92776 24.888 2.31024 22.9588 3.05336 21.1587C3.79648 19.3587 4.88569 17.7232 6.2588 16.3455C7.63191 14.9678 9.26203 13.8749 11.0561 13.1294C12.8501 12.3838 14.773 12 16.7149 12C18.6567 12 20.5796 12.3838 22.3736 13.1294C24.1677 13.8749 25.7978 14.9678 27.1709 16.3455C28.544 17.7232 29.6332 19.3587 30.3764 21.1587C31.1195 22.9588 31.502 24.888 31.502 26.8364" stroke="#3589A1" stroke-width="2.25"/>
<path d="M18.4961 20.8091C18.4961 22.7575 18.8786 24.6867 19.6217 26.4868C20.3648 28.2868 21.454 29.9224 22.8272 31.3C24.2003 32.6777 25.8304 33.7706 27.6244 34.5162C29.4185 35.2618 31.3413 35.6455 33.2832 35.6455C35.2251 35.6455 37.1479 35.2618 38.942 34.5162C40.736 33.7706 42.3662 32.6777 43.7393 31.3C45.1124 29.9224 46.2016 28.2868 46.9447 26.4868C47.6878 24.6867 48.0703 22.7575 48.0703 20.8091" stroke="#3589A1" stroke-width="2.25"/>
<path d="M2.00586 25.7546L19.0381 15.0137" stroke="#463F57" stroke-width="0.75"/>
<path d="M14.499 12.5947L33.999 35.0521" stroke="#463F57" stroke-width="1.125"/>
<path d="M29.499 33.1384L47.499 21.7354" stroke="#463F57" stroke-width="0.75"/>
<path d="M8.27637 24.9814H8.2774" stroke="#A6A6A6" stroke-width="4.49032" stroke-linecap="round"/>
<path d="M22.0566 16.791H22.0577" stroke="#A6A6A6" stroke-width="4.49032" stroke-linecap="round"/>
<path d="M38.4697 30.8555H38.4708" stroke="#A6A6A6" stroke-width="4.49032" stroke-linecap="round"/>
</svg>
