<svg width="389" height="208" viewBox="0 0 389 208" fill="none" xmlns="http://www.w3.org/2000/svg">
<path fill-rule="evenodd" clip-rule="evenodd" d="M48.7571 205.312C44.2211 205.312 41.0771 201.784 41.0771 196.096C41.0771 190.408 44.2211 187 48.7571 187C53.2932 187 56.4611 190.408 56.4611 196.096C56.4611 201.784 53.2932 205.312 48.7571 205.312ZM48.7571 202.888C51.6852 202.888 53.6051 200.248 53.6051 196.096C53.6051 191.944 51.6852 189.424 48.7571 189.424C45.8291 189.424 43.9331 191.944 43.9331 196.096C43.9331 200.248 45.8291 202.888 48.7571 202.888ZM25.2293 197.776H30.0533L29.3573 195.4C28.859 193.805 28.4103 192.178 27.9563 190.53L27.9563 190.53L27.9558 190.529C27.8634 190.193 27.7707 189.857 27.6773 189.52H27.5813C27.0773 191.536 26.5253 193.48 25.9493 195.4L25.2293 197.776ZM32.2133 205L30.7253 199.96H24.5813L23.0693 205H20.2373L26.0933 187.336H29.3093L35.1653 205H32.2133ZM0 187.336V205H2.784V196.96H10.344V205H13.128V187.336H10.344V194.536H2.784V187.336H0Z" fill="black"/>
<path fill-rule="evenodd" clip-rule="evenodd" d="M77.9759 198.304V205H80.7599V198.304L86.0879 187.336H83.1839L81.1199 192.016C80.7873 192.847 80.4356 193.641 80.0769 194.45C79.8662 194.926 79.653 195.407 79.4399 195.904H79.3439C78.8323 194.758 78.3905 193.699 77.9293 192.594C77.8496 192.403 77.7692 192.211 77.6879 192.016L75.6479 187.336H72.6719L77.9759 198.304ZM93.1377 187.336V205H103.842V202.648H95.9217V196.936H102.402V194.584H95.9217V189.664H103.578V187.336H93.1377Z" fill="black"/>
<path fill-rule="evenodd" clip-rule="evenodd" d="M183.34 202.72C184.948 204.352 187.204 205.312 189.628 205.312C193.492 205.312 195.844 203.008 195.844 200.176C195.844 197.584 194.332 196.288 192.244 195.4L189.82 194.368C188.38 193.792 186.964 193.216 186.964 191.704C186.964 190.288 188.14 189.424 189.94 189.424C191.5 189.424 192.724 190.024 193.828 191.008L195.292 189.232C193.948 187.864 192.004 187 189.94 187C186.58 187 184.132 189.088 184.132 191.872C184.132 194.44 186.028 195.784 187.732 196.504L190.18 197.56L190.255 197.593C191.848 198.296 193.012 198.809 193.012 200.392C193.012 201.88 191.812 202.888 189.676 202.888C187.972 202.888 186.244 202.072 184.972 200.8L183.34 202.72ZM203.691 205V189.664H198.507V187.336H211.683V189.664H206.475V205H203.691ZM218.963 195.64V189.568H221.627C224.195 189.568 225.587 190.312 225.587 192.448C225.587 194.584 224.195 195.64 221.627 195.64H218.963ZM225.827 205H228.971L224.651 197.512C226.883 196.816 228.347 195.184 228.347 192.448C228.347 188.632 225.611 187.336 221.963 187.336H216.179V205H218.963V197.872H221.819L225.827 205ZM233.346 205V187.336H236.13V205H233.346ZM249.68 197.776H244.856L245.576 195.4C246.152 193.48 246.704 191.536 247.208 189.52H247.304C247.398 189.857 247.49 190.193 247.583 190.529L247.583 190.531L247.584 190.533L247.584 190.533C248.038 192.179 248.486 193.806 248.984 195.4L249.68 197.776ZM250.352 199.96L251.84 205H254.792L248.936 187.336H245.72L239.864 205H242.696L244.208 199.96H250.352ZM258.562 187.336V205H268.81V202.648H261.346V187.336H258.562ZM172.284 205.312C168.372 205.312 165.708 203.176 165.708 197.416V187.336H168.492V197.608C168.492 201.592 170.076 202.888 172.284 202.888C174.516 202.888 176.148 201.592 176.148 197.608V187.336H178.836V197.416C178.836 203.176 176.196 205.312 172.284 205.312ZM147.583 187.336V205H152.311C157.591 205 160.687 201.832 160.687 196.096C160.687 190.336 157.591 187.336 152.167 187.336H147.583ZM151.975 202.72H150.367V189.592H151.975C155.767 189.592 157.807 191.68 157.807 196.096C157.807 200.488 155.767 202.72 151.975 202.72ZM128.519 205V187.336H131.375L137.231 197.704L139.079 201.448H139.199C139.171 201.105 139.142 200.75 139.112 200.388C138.981 198.828 138.839 197.127 138.839 195.568V187.336H141.479V205H138.623L132.767 194.584L130.919 190.888H130.799C130.828 191.265 130.861 191.651 130.895 192.044L130.895 192.044C131.023 193.55 131.159 195.149 131.159 196.672V205H128.519ZM119.672 187.336V205H122.456V187.336H119.672Z" fill="black"/>
<path fill-rule="evenodd" clip-rule="evenodd" d="M284.672 196.216C284.672 202 288.08 205.312 292.52 205.312C294.8 205.312 296.6 204.4 298.016 202.768L296.528 201.016C295.472 202.168 294.224 202.888 292.616 202.888C289.496 202.888 287.528 200.32 287.528 196.12C287.528 191.968 289.64 189.424 292.688 189.424C294.128 189.424 295.232 190.072 296.144 191.008L297.656 189.232C296.576 188.056 294.848 187 292.64 187C288.176 187 284.672 190.456 284.672 196.216ZM304.144 196.096C304.144 201.784 307.288 205.312 311.824 205.312C316.36 205.312 319.528 201.784 319.528 196.096C319.528 190.408 316.36 187 311.824 187C307.288 187 304.144 190.408 304.144 196.096ZM316.672 196.096C316.672 200.248 314.752 202.888 311.824 202.888C308.896 202.888 307 200.248 307 196.096C307 191.944 308.896 189.424 311.824 189.424C314.752 189.424 316.672 191.944 316.672 196.096Z" fill="black"/>
<path fill-rule="evenodd" clip-rule="evenodd" d="M341 187.336V205H351.248V202.648H343.784V187.336H341ZM359.525 205V189.664H354.341V187.336H367.517V189.664H362.309V205H359.525ZM375.373 205V187.336H379.957C385.381 187.336 388.477 190.336 388.477 196.096C388.477 201.832 385.381 205 380.101 205H375.373ZM378.157 202.72H379.765C383.557 202.72 385.597 200.488 385.597 196.096C385.597 191.68 383.557 189.592 379.765 189.592H378.157V202.72Z" fill="black"/>
<rect x="325.222" y="202" width="3" height="3" fill="black"/>
<path d="M335.222 202H332.222V205H333.954C333.717 205.631 333.162 206.154 332.361 206.484L332.772 207.511C333.842 207.105 334.625 206.413 335.035 205.515C335.187 205.184 335.223 204.816 335.223 204.452L335.222 202Z" fill="black"/>
</svg>
