<svg width="389" height="208" viewBox="0 0 389 208" fill="none" xmlns="http://www.w3.org/2000/svg" style="">
<path d="M46 102C46 89.3931 48.4702 76.9096 53.2695 65.2624C58.0688 53.6151 65.1033 43.0322 73.9713 34.1177C82.8393 25.2033 93.3672 18.132 104.954 13.3076C116.54 8.48311 128.959 6 141.5 6C154.041 6 166.46 8.48311 178.046 13.3076C189.633 18.132 200.161 25.2033 209.029 34.1178C217.897 43.0322 224.931 53.6151 229.73 65.2624C234.53 76.9097 237 89.3931 237 102" stroke="#3589A1" stroke-width="11" class="vGpDmaLV_0"></path>
<path d="M153 63C153 75.6069 155.47 88.0904 160.27 99.7376C165.069 111.385 172.103 121.968 180.971 130.882C189.839 139.797 200.367 146.868 211.954 151.692C223.54 156.517 235.959 159 248.5 159C261.041 159 273.46 156.517 285.046 151.692C296.633 146.868 307.161 139.797 316.029 130.882C324.897 121.968 331.931 111.385 336.73 99.7376C341.53 88.0903 344 75.6069 344 63" stroke="#3589A1" stroke-width="11" class="vGpDmaLV_1"></path>
<path d="M46.5 95L156.5 25.5" stroke="#463F57" stroke-width="2" class="vGpDmaLV_2"></path>
<path d="M128.5 11.5L254.5 154.636" stroke="#463F57" stroke-width="4" class="vGpDmaLV_3"></path>
<path d="M230.5 139.5L341.576 69" stroke="#463F57" stroke-width="2" class="vGpDmaLV_4"></path>
<path d="M87 90H87.01" stroke="#A6A6A6" stroke-width="29" stroke-linecap="round" class="vGpDmaLV_5"></path>
<path d="M176 37H176.01" stroke="#A6A6A6" stroke-width="29" stroke-linecap="round" class="vGpDmaLV_6"></path>
<path d="M282 128H282.01" stroke="#A6A6A6" stroke-width="29" stroke-linecap="round" class="vGpDmaLV_7"></path>
<style data-made-with="vivus-instant">.vGpDmaLV_0{stroke-dasharray:301 303;stroke-dashoffset:302;animation:vGpDmaLV_draw_0 12240ms ease-in-out 0ms infinite,vGpDmaLV_fade 12240ms linear 0ms infinite;}.vGpDmaLV_1{stroke-dasharray:301 303;stroke-dashoffset:302;animation:vGpDmaLV_draw_1 12240ms ease-in-out 0ms infinite,vGpDmaLV_fade 12240ms linear 0ms infinite;}.vGpDmaLV_2{stroke-dasharray:131 133;stroke-dashoffset:132;animation:vGpDmaLV_draw_2 12240ms ease-in-out 0ms infinite,vGpDmaLV_fade 12240ms linear 0ms infinite;}.vGpDmaLV_3{stroke-dasharray:191 193;stroke-dashoffset:192;animation:vGpDmaLV_draw_3 12240ms ease-in-out 0ms infinite,vGpDmaLV_fade 12240ms linear 0ms infinite;}.vGpDmaLV_4{stroke-dasharray:132 134;stroke-dashoffset:133;animation:vGpDmaLV_draw_4 12240ms ease-in-out 0ms infinite,vGpDmaLV_fade 12240ms linear 0ms infinite;}.vGpDmaLV_5{stroke-dasharray:1 3;stroke-dashoffset:2;animation:vGpDmaLV_draw_5 12240ms ease-in-out 0ms infinite,vGpDmaLV_fade 12240ms linear 0ms infinite;}.vGpDmaLV_6{stroke-dasharray:1 3;stroke-dashoffset:2;animation:vGpDmaLV_draw_6 12240ms ease-in-out 0ms infinite,vGpDmaLV_fade 12240ms linear 0ms infinite;}.vGpDmaLV_7{stroke-dasharray:1 3;stroke-dashoffset:2;animation:vGpDmaLV_draw_7 12240ms ease-in-out 0ms infinite,vGpDmaLV_fade 12240ms linear 0ms infinite;}@keyframes vGpDmaLV_draw{100%{stroke-dashoffset:0;}}@keyframes vGpDmaLV_fade{0%{stroke-opacity:1;}99.01960784313725%{stroke-opacity:1;}100%{stroke-opacity:0;}}@keyframes vGpDmaLV_draw_0{0.9803921568627451%{stroke-dashoffset: 302}10.229952649600921%{ stroke-dashoffset: 0;}100%{ stroke-dashoffset: 0;}}@keyframes vGpDmaLV_draw_1{10.229952649600921%{stroke-dashoffset: 302}19.479513142339098%{ stroke-dashoffset: 0;}100%{ stroke-dashoffset: 0;}}@keyframes vGpDmaLV_draw_2{19.479513142339098%{stroke-dashoffset: 132}23.522367397443205%{ stroke-dashoffset: 0;}100%{ stroke-dashoffset: 0;}}@keyframes vGpDmaLV_draw_3{23.522367397443205%{stroke-dashoffset: 192}29.402882677594626%{ stroke-dashoffset: 0;}100%{ stroke-dashoffset: 0;}}@keyframes vGpDmaLV_draw_4{29.402882677594626%{stroke-dashoffset: 133}33.47636461644952%{ stroke-dashoffset: 0;}100%{ stroke-dashoffset: 0;}}@keyframes vGpDmaLV_draw_5{33.47636461644951%{stroke-dashoffset: 2}33.53761998395109%{ stroke-dashoffset: 0;}100%{ stroke-dashoffset: 0;}}@keyframes vGpDmaLV_draw_6{33.537619983951096%{stroke-dashoffset: 2}33.598875351452676%{ stroke-dashoffset: 0;}100%{ stroke-dashoffset: 0;}}@keyframes vGpDmaLV_draw_7{33.598875351452676%{stroke-dashoffset: 2}33.66013071895425%{ stroke-dashoffset: 0;}100%{ stroke-dashoffset: 0;}}</style></svg>
