<svg width="50" height="25" viewBox="0 0 50 25" fill="none" xmlns="http://www.w3.org/2000/svg">
<mask id="mask0_549_748" style="mask-type:alpha" maskUnits="userSpaceOnUse" x="0" y="0" width="50" height="25">
<rect width="50" height="25" fill="#FF0000"/>
</mask>
<g mask="url(#mask0_549_748)">
<path d="M1.71289 23.5165L28.223 6.57031" stroke="#463F57"/>
<path d="M18 2.5L37.3459 24.3243" stroke="#463F57" stroke-width="2"/>
<path d="M2.31894 25.0004C2.31894 22.0047 2.90591 19.0383 4.04634 16.2706C5.18678 13.503 6.85834 10.9882 8.96558 8.86992C11.0728 6.75164 13.5745 5.07133 16.3277 3.92492C19.081 2.77852 22.0319 2.18847 25.012 2.18847C27.9921 2.18847 30.943 2.77852 33.6963 3.92493C36.4495 5.07133 38.9512 6.75164 41.0584 8.86992C43.1657 10.9882 44.8372 13.503 45.9777 16.2706C47.1181 19.0383 47.7051 22.0047 47.7051 25.0004" stroke="#3589A1" stroke-width="4"/>
<path d="M15.6265 21.3125H15.6288" stroke="#A6A6A6" stroke-width="6.89109" stroke-linecap="round"/>
<path d="M33.2104 10.7432H33.2128" stroke="#A6A6A6" stroke-width="6.89109" stroke-linecap="round"/>
</g>
</svg>
